<?xml version="1.0" encoding="UTF-8" standalone="no"?>
<svg
   xmlns:dc="http://purl.org/dc/elements/1.1/"
   xmlns:cc="http://creativecommons.org/ns#"
   xmlns:rdf="http://www.w3.org/1999/02/22-rdf-syntax-ns#"
   xmlns:svg="http://www.w3.org/2000/svg"
   xmlns="http://www.w3.org/2000/svg"
   version="1.1"
   id="svg134"
   width="334.36734"
   height="334.36734"
   viewBox="0 0 334.36734 334.36734">
  <metadata
     id="metadata140">
    <rdf:RDF>
      <cc:Work
         rdf:about="">
        <dc:format>image/svg+xml</dc:format>
        <dc:type
           rdf:resource="http://purl.org/dc/dcmitype/StillImage" />
        <dc:title></dc:title>
      </cc:Work>
    </rdf:RDF>
  </metadata>
  <defs
     id="defs138" />
  <g
     id="g142">
    <path
       style="fill:#000000;stroke-width:0.653061"
       d="M 157.71447,333.33177 C 140.05135,331.57385 129.6,329.46002 115.59202,324.81232 90.568464,316.50975 68.071264,302.46359 49.158214,283.33427 22.846474,256.72163 7.0741246,224.84971 1.5362446,187.10234 0.12682437,177.49543 -0.03697563,154.49918 1.2315544,144.32683 4.5223846,117.9377 13.918665,92.535836 28.423894,70.815196 34.485864,61.737785 34.809184,61.325367 43.664044,51.375334 56.761894,36.657522 75.304024,22.46735 93.131239,13.518414 107.32279,6.3945147 125.16155,0.24136324 129.57639,0.94732524 c 5.64185,0.90216896 9.52584,5.39470656 9.52584,11.01837976 0,2.466481 -0.49514,3.67177 -2.91455,7.094757 -12.87378,18.21384 -18.18594,29.036043 -22.5615,45.963482 -7.50002,29.014821 -4.22947,61.150626 8.88001,87.253156 6.52613,12.99431 13.973,23.38587 23.8043,33.21717 25.65913,25.65914 61.30788,39.11939 96.87587,36.57839 26.14043,-1.86748 48.12837,-10.26769 69.4394,-26.52842 7.75951,-5.92066 11.74914,-6.75888 16.98073,-3.56766 2.40239,1.46543 4.76104,5.62136 4.76104,8.38892 0,2.46153 -4.48684,17.7219 -7.48683,25.46378 -22.175,57.22548 -74.49195,98.17455 -135.7889,106.2835 -7.07691,0.93621 -28.3956,1.71479 -33.37733,1.21899 z"
       id="path146" />
  </g>
</svg>
