<?xml version="1.0" encoding="UTF-8" standalone="no"?>
<svg
   xmlns:dc="http://purl.org/dc/elements/1.1/"
   xmlns:cc="http://creativecommons.org/ns#"
   xmlns:rdf="http://www.w3.org/1999/02/22-rdf-syntax-ns#"
   xmlns:svg="http://www.w3.org/2000/svg"
   xmlns="http://www.w3.org/2000/svg"
   version="1.1"
   id="svg10"
   width="682.66669"
   height="682.66669"
   viewBox="0 0 682.66669 682.66669">
  <metadata
     id="metadata16">
    <rdf:RDF>
      <cc:Work
         rdf:about="">
        <dc:format>image/svg+xml</dc:format>
        <dc:type
           rdf:resource="http://purl.org/dc/dcmitype/StillImage" />
        <dc:title></dc:title>
      </cc:Work>
    </rdf:RDF>
  </metadata>
  <defs
     id="defs14" />
  <g
     id="g18">
    <path
       style="fill:#000000;stroke-width:1.33333"
       d="m 134.66625,681.76459 c -28.70158,-4.96152 -54.030919,-29.28676 -59.870699,-57.49731 -0.99018,-4.78331 -1.46263,-41.49971 -1.46263,-113.66667 V 403.99956 h -9.0532 c -37.46406,0 -66.4671897,-30.25534 -63.90744966,-66.66667 C 1.1586513,326.14691 4.7734213,315.28909 10.628521,306.52585 12.781811,303.30305 79.821191,235.4737 159.60492,155.79394 277.09392,38.458057 306.00066,10.257563 311.68672,7.4277739 c 21.34772,-10.6241476 44.52762,-9.5103146 64.02117,3.0763261 3.46044,2.234343 71.46841,69.334871 151.12883,149.11228 133.56336,133.75953 145.15956,145.72443 148.97964,153.71651 5.83806,12.21392 7.84411,25.3149 5.76762,37.66667 -5.25782,31.27552 -31.16235,53 -63.19785,53 h -9.0532 v 106.60105 c 0,72.16696 -0.47245,108.88336 -1.46262,113.66667 -5.0328,24.3122 -24.70194,46.27168 -48.95012,54.65001 -8.84576,3.05643 -9.46496,3.08228 -73.82187,3.08228 -63.46986,0 -64.98253,-0.0607 -68.58429,-2.74905 -2.02565,-1.51197 -4.92008,-4.40532 -6.43205,-6.42965 -2.69583,-3.60934 -2.76196,-5.40184 -3.41572,-92.58429 -0.54732,-72.98741 -1.00225,-89.50044 -2.54119,-92.23701 -4.13086,-7.34564 -8.44256,-11.75199 -15.1197,-15.45162 l -7.00578,-3.88172 -34.66666,-0.44061 c -19.06667,-0.24233 -37.75193,-0.0572 -41.52279,0.41131 -9.74999,1.21148 -20.0516,7.74762 -25.096,15.92285 l -4.04788,6.56023 -0.66667,89.01007 c -0.65379,87.28989 -0.7198,89.08121 -3.41572,92.69073 -1.51197,2.02436 -4.40537,4.91774 -6.42979,6.42971 -3.58642,2.67863 -5.27521,2.75343 -65.91761,2.91967 -34.23028,0.0939 -63.73689,-0.0887 -65.57022,-0.4056 z"
       id="path22" />
  </g>
</svg>
