<?xml version="1.0" encoding="UTF-8" standalone="no"?>
<svg
   xmlns:dc="http://purl.org/dc/elements/1.1/"
   xmlns:cc="http://creativecommons.org/ns#"
   xmlns:rdf="http://www.w3.org/1999/02/22-rdf-syntax-ns#"
   xmlns:svg="http://www.w3.org/2000/svg"
   xmlns="http://www.w3.org/2000/svg"
   version="1.1"
   id="svg120"
   width="546.1333"
   height="546.1333"
   viewBox="0 0 546.1333 546.1333">
  <metadata
     id="metadata126">
    <rdf:RDF>
      <cc:Work
         rdf:about="">
        <dc:format>image/svg+xml</dc:format>
        <dc:type
           rdf:resource="http://purl.org/dc/dcmitype/StillImage" />
        <dc:title></dc:title>
      </cc:Work>
    </rdf:RDF>
  </metadata>
  <defs
     id="defs124" />
  <g
     id="g128">
    <path
       style="fill:#000000;stroke-width:1.06667"
       d="m 260.98962,543.73372 c 15.48443,-17.19598 70.22422,-80.61939 72.21667,-83.67273 4.42028,-6.7739 7.06071,-16.41155 7.1715,-26.17619 0.0637,-5.61393 -7.30189,-67.99071 -20.27203,-171.67746 C 308.90113,172.63449 299.7337,98.834493 299.7337,98.207346 c 0,-1.53034 198.83928,-1.599442 207.05439,-0.07196 8.21314,1.527117 17.97088,6.795944 24.3641,13.155754 6.31664,6.2836 12.32022,17.58152 13.91611,26.1882 1.47948,7.97887 1.45711,361.49763 -0.0234,369.30418 -3.63301,19.15685 -19.10459,34.62843 -38.26144,38.26144 -3.69352,0.70046 -48.93301,1.08876 -126.848,1.08876 H 258.82849 Z m 130.69999,-143.3151 c 3.74206,-1.93509 18.55261,-13.56069 31.67584,-24.86408 4.8237,-4.15477 9.23062,-7.55414 9.79313,-7.55414 0.56253,0 3.05205,1.84506 5.53227,4.10014 6.99976,6.36435 32.91269,26.31777 36.7232,28.27752 7.29285,3.75073 16.80772,0.62896 20.57194,-6.74953 4.88273,-9.57094 2.20829,-15.35515 -12.17735,-26.33689 -5.90789,-4.50997 -14.71898,-11.51416 -19.58018,-15.56485 l -8.83855,-7.3649 3.78962,-4.98074 c 13.35936,-17.55835 24.8701,-38.01897 31.00608,-55.11408 l 3.44575,-9.6 4.65115,-0.58916 c 2.55815,-0.32403 6.20646,-1.41392 8.10738,-2.42198 3.96343,-2.10181 7.74379,-8.70306 7.74379,-13.52219 0,-5.29293 -3.77314,-11.4382 -8.50519,-13.85231 -3.88065,-1.97977 -6.2565,-2.14769 -30.38564,-2.14769 h -26.17583 v -9.6425 c 0,-11.88189 -2.13765,-16.96133 -8.50519,-20.20981 -5.33172,-2.72004 -9.6579,-2.72004 -14.98961,0 -6.36755,3.24848 -8.5052,8.32792 -8.5052,20.20981 v 9.6425 h -25.64249 c -23.59463,0 -25.9787,0.17152 -29.85231,2.14769 -4.73205,2.41411 -8.50519,8.55938 -8.50519,13.85231 0,4.81913 3.78036,11.42038 7.74379,13.52219 1.90092,1.00806 5.54923,2.09795 8.10737,2.42198 l 4.65116,0.58916 3.44726,9.6 c 6.71399,18.69727 18.58238,40.37692 30.75116,56.17228 l 2.96741,3.85178 -9.90074,8.43788 c -5.44541,4.64082 -14.01724,11.66671 -19.04849,15.61306 -12.67501,9.94188 -15.25387,16.10776 -10.57384,25.28137 3.75104,7.35264 13.2829,10.51565 20.4775,6.79518 z m 39.77196,-81.90222 c -10.22933,-14.30469 -23.99455,-39.1252 -23.99455,-43.26533 0,-0.74827 8.63215,-1.11733 26.13333,-1.11733 16.36727,0 26.13334,0.3909 26.13334,1.04602 0,3.98524 -16.74715,32.92269 -24.85902,42.95397 -1.82112,2.25203 -2.05739,2.27851 -3.4131,0.38267 z M 210.9054,537.53663 c -6.73008,-4.45782 -12.91586,-11.66911 -16.78817,-19.57137 -3.00509,-6.13252 -3.5181,-8.56233 -6.83325,-32.36487 l -0.48282,-3.46667 h 42.18359 42.1836 l -9.49893,10.4 c -5.22442,5.72 -17.13568,18.8 -26.46948,29.06667 -9.3338,10.26666 -17.48716,18.80165 -18.11857,18.96664 -0.6314,0.16498 -3.41059,-1.1987 -6.17597,-3.0304 z M 38.515925,448.98002 c -18.31205,-3.59628 -33.87767,-19.48202 -37.4268,-38.1965 -1.5015,-7.91741 -1.5015,-363.51549 0,-371.432896 3.63303,-19.156857 19.1046,-34.6284343 38.26146,-38.2614575 3.61172,-0.68494857 37.63265,-1.08290427 91.728695,-1.07298537 91.75259,0.016823 93.35831,0.098898 103.53807,5.29221787 10.60309,5.409297 21.67536,19.376475 24.54201,30.95868 0.65341,2.64 12.17176,93.496341 25.59631,201.902971 17.1507,138.49615 24.14248,198.02975 23.51437,200.21984 -0.49165,1.71428 -2.4538,5.05794 -4.36031,7.43035 l -3.46641,4.31349 -128.62147,-0.11688 C 101.08004,449.95255 41.092375,449.486 38.515925,448.98002 Z M 103.48368,304.16099 c 5.99142,-3.18013 7.79297,-8.06947 13.3239,-36.16059 l 5.09295,-25.86666 h 22.63317 22.63318 L 172.28,268.0004 c 2.81222,14.22667 6.00621,27.6602 7.09777,29.85231 2.24346,4.50542 8.48487,8.28102 13.68926,8.28102 7.72087,0 16,-7.85189 16,-15.17433 0,-1.35262 -7.36557,-39.27343 -16.36795,-84.26846 -17.88154,-89.37425 -17.40746,-87.68484 -25.5203,-90.9424 -5.75195,-2.30959 -39.53822,-2.30959 -45.29016,0 -8.11284,3.25756 -7.63876,1.56815 -25.520295,90.9424 -9.00237,44.99503 -16.36795,82.91584 -16.36795,84.26846 0,1.35263 0.96529,4.35144 2.14509,6.66404 3.87225,7.59024 13.68868,10.59777 21.338215,6.53755 z m 31.23228,-126.02725 6.39795,-32 h 3.41979 3.41979 l 6.39795,32 6.39794,32 H 144.5337 128.31802 Z"
       id="path132" />
  </g>
</svg>
