<?xml version="1.0" encoding="UTF-8" standalone="no"?>
<svg
   xmlns:dc="http://purl.org/dc/elements/1.1/"
   xmlns:cc="http://creativecommons.org/ns#"
   xmlns:rdf="http://www.w3.org/1999/02/22-rdf-syntax-ns#"
   xmlns:svg="http://www.w3.org/2000/svg"
   xmlns="http://www.w3.org/2000/svg"
   version="1.1"
   id="svg148"
   width="48.188236"
   height="48.188236"
   viewBox="0 0 48.188236 48.188236">
  <metadata
     id="metadata154">
    <rdf:RDF>
      <cc:Work
         rdf:about="">
        <dc:format>image/svg+xml</dc:format>
        <dc:type
           rdf:resource="http://purl.org/dc/dcmitype/StillImage" />
        <dc:title></dc:title>
      </cc:Work>
    </rdf:RDF>
  </metadata>
  <defs
     id="defs152" />
  <g
     id="g156">
    <path
       style="fill:#000000;stroke-width:0.0941176"
       d="m 23.269989,48.03158 c -0.538128,-0.190466 -1.189393,-0.857262 -1.378036,-1.410902 -0.214451,-0.629379 -0.220389,-4.705532 -0.0077,-5.308263 0.200136,-0.567246 0.542006,-0.982194 1.060167,-1.286786 0.378512,-0.222504 0.547806,-0.260923 1.149751,-0.260923 0.601946,0 0.77124,0.03842 1.149752,0.260923 0.518161,0.304592 0.860031,0.71954 1.060166,1.286786 0.212656,0.602731 0.206719,4.678884 -0.0077,5.308263 -0.405531,1.190169 -1.805695,1.842936 -3.026334,1.410902 z M 7.8588442,41.646644 c -0.490561,-0.173735 -1.222274,-0.939607 -1.355236,-1.418504 -0.0564,-0.203124 -0.102774,-0.583354 -0.103063,-0.844954 -9.04e-4,-0.821937 0.297084,-1.251955 2.094753,-3.02284 1.7187248,-1.693117 2.0516288,-1.913287 2.8929568,-1.913287 1.225732,0 2.352942,1.12721 2.352942,2.352942 0,0.841328 -0.22017,1.174232 -1.913287,2.892957 -1.801766,1.829016 -2.1967158,2.098048 -3.0698988,2.091147 -0.287483,-0.0023 -0.692109,-0.06413 -0.899167,-0.137461 z m 30.5742208,-0.09486 c -0.334004,-0.166441 -0.94772,-0.71683 -2.072699,-1.858823 -1.693117,-1.718725 -1.913287,-2.051629 -1.913287,-2.892957 0,-1.225732 1.12721,-2.352942 2.352942,-2.352942 0.841328,0 1.174232,0.22017 2.892957,1.913287 1.797668,1.770885 2.09566,2.200903 2.094753,3.02284 -8.47e-4,0.783465 -0.162077,1.182303 -0.692149,1.712376 -0.743979,0.743979 -1.741915,0.914974 -2.662517,0.456219 z M 22.146514,36.002295 C 19.494297,35.49642 17.31456,34.366521 15.55592,32.585962 13.861296,30.87022 12.785492,28.862714 12.266135,26.447059 c -0.239926,-1.11595 -0.240296,-3.586892 -7.53e-4,-4.705882 1.035115,-4.834243 4.641572,-8.4407 9.475815,-9.47577 1.116968,-0.239156 3.588914,-0.239156 4.705882,0 4.834243,1.03507 8.4407,4.641527 9.47577,9.47577 0.239588,1.11899 0.239218,3.589932 -7.53e-4,4.705882 -1.034299,4.810776 -4.585007,8.391607 -9.380944,9.460529 -0.958446,0.213619 -3.485704,0.268082 -4.394683,0.09471 z M 1.5288132,26.290403 c -0.220341,-0.07799 -0.58661797,-0.327795 -0.81394997,-0.555126 -0.941908,-0.941908 -0.94256,-2.339758 -0.0015,-3.280787 0.65670597,-0.656706 0.93620197,-0.713313 3.52198097,-0.713313 2.575969,0 2.89128,0.0628 3.531889,0.703405 0.920618,0.920618 0.920618,2.378454 0,3.299072 -0.645002,0.645001 -0.950756,0.704572 -3.572184,0.695975 -1.763292,-0.0058 -2.354407,-0.03887 -2.666206,-0.149226 z m 39.7503348,0.0086 c -0.536001,-0.196386 -0.957038,-0.55079 -1.253499,-1.055117 -0.222504,-0.378512 -0.260923,-0.547807 -0.260923,-1.149752 0,-0.601945 0.03842,-0.77124 0.260923,-1.149752 0.304592,-0.51816 0.71954,-0.860031 1.286786,-1.060166 0.602731,-0.212656 4.678884,-0.206718 5.308263,0.0077 0.861486,0.293534 1.567558,1.28546 1.567558,2.202182 0,0.916722 -0.706072,1.908648 -1.567558,2.202185 -0.608432,0.207313 -4.777337,0.209409 -5.34155,0.0027 z M 10.541197,13.576954 C 9.9633242,13.373161 6.9884272,10.461468 6.6364752,9.755191 6.1777192,8.8345891 6.3487152,7.8366538 7.0926942,7.0926743 7.6227672,6.5626014 8.0216052,6.4013896 8.8050702,6.400525 c 0.821937,-9.035e-4 1.2519548,0.2970845 3.0228398,2.0947531 1.337692,1.3579239 1.623877,1.6979719 1.755742,2.0861939 0.31201,0.918582 0.117986,1.772637 -0.555768,2.446392 -0.67189,0.671891 -1.573777,0.871038 -2.486687,0.54909 z m 25.434675,0.0076 c -0.824301,-0.291755 -1.528793,-1.303838 -1.528793,-2.196286 0,-0.841328 0.22017,-1.174232 1.913287,-2.8929569 1.770885,-1.7976686 2.200903,-2.0956601 3.02284,-2.0947531 0.783465,8.659e-4 1.182303,0.1620764 1.712376,0.6921493 0.530072,0.5300727 0.691285,0.9289106 0.692149,1.7123758 9.41e-4,0.8219369 -0.297085,1.2519549 -2.094753,3.0228399 -1.357924,1.337692 -1.697972,1.623877 -2.086194,1.755742 -0.56091,0.190521 -1.094316,0.190811 -1.630912,8.47e-4 z M 23.255129,8.3089785 C 22.699519,8.1127348 22.092197,7.490716 21.897073,6.9180579 21.672288,6.2583474 21.668426,2.223573 21.891973,1.567558 22.18551,0.706072 23.177436,0 24.094158,0 c 0.916722,0 1.908648,0.706072 2.202185,1.567558 0.223527,0.656015 0.219665,4.6907894 -0.0051,5.3504999 -0.407377,1.1955873 -1.7925,1.8301557 -3.036073,1.3909206 z"
       id="path160" />
  </g>
</svg>
