<?xml version="1.0" encoding="UTF-8" standalone="no"?>
<svg
   xmlns:dc="http://purl.org/dc/elements/1.1/"
   xmlns:cc="http://creativecommons.org/ns#"
   xmlns:rdf="http://www.w3.org/1999/02/22-rdf-syntax-ns#"
   xmlns:svg="http://www.w3.org/2000/svg"
   xmlns="http://www.w3.org/2000/svg"
   version="1.1"
   id="svg24"
   width="512"
   height="512"
   viewBox="0 0 512 512">
  <metadata
     id="metadata30">
    <rdf:RDF>
      <cc:Work
         rdf:about="">
        <dc:format>image/svg+xml</dc:format>
        <dc:type
           rdf:resource="http://purl.org/dc/dcmitype/StillImage" />
        <dc:title></dc:title>
      </cc:Work>
    </rdf:RDF>
  </metadata>
  <defs
     id="defs28" />
  <g
     id="g32">
    <path
       style="fill:#010101"
       d="M 37.26219,446.54756 C 11.45446,440.68719 -4.9670304,414.48853 1.5307196,389.54197 9.1554496,360.26865 40.9659,345.3411 67.67716,358.50172 c 25.93301,12.77718 34.2677,44.4966 18.0497,68.692 -10.34579,15.43475 -30.42036,23.4513 -48.46467,19.35384 z m 129.2475,0.27764 c -16.02564,-3.05602 -30.22635,-15.76748 -35.55331,-31.82478 -1.77754,-5.35812 -2.09176,-8.25674 -1.78869,-16.5 0.33326,-9.06395 0.71375,-10.72828 4.06487,-17.78033 7.02565,-14.78468 20.52069,-24.57679 36.77764,-26.68616 9.82451,-1.27475 290.89288,-1.3091 300.68606,-0.0367 19.12029,2.48415 34.81413,16.50992 39.77208,35.54478 6.56263,25.19565 -10.12243,51.46343 -36.199,56.98917 -5.71791,1.21165 -29.76616,1.41987 -154.76981,1.34007 -89.05038,-0.0568 -149.98749,-0.47348 -152.98984,-1.04601 z M 35.10416,301.4179 C 10.38391,294.77025 -4.8354204,268.98325 1.5324396,244.53538 7.9392296,219.93805 32.30392,204.87355 57.20031,210.11636 c 16.77345,3.53224 31.89987,18.34424 35.73868,34.99584 1.28268,5.5639 1.30137,16.13278 0.0382,21.60645 -5.81162,25.18326 -32.88858,41.41795 -57.87302,34.69925 z m 128.70827,0.11276 c -11.10599,-3.05883 -23.04854,-11.95708 -28.47475,-21.2162 -8.43395,-14.39145 -8.43395,-34.23663 0,-48.62808 3.31207,-5.65161 13.21025,-14.80484 19.0853,-17.6489 10.78085,-5.21892 3.97602,-5.01245 165.61645,-5.02519 164.01544,-0.0129 155.5447,-0.29649 167.17324,5.59614 7.24764,3.67265 15.77151,12.55712 19.68146,20.51408 13.17125,26.80418 -1.50947,58.81227 -30.42956,66.345 -5.16937,1.34645 -24.2574,1.52203 -156.92514,1.44349 -120.07759,-0.0711 -152.00073,-0.35405 -155.727,-1.38034 z M 41.49953,157.88871 C 22.36405,155.88633 6.5814796,141.85003 1.4911996,122.30712 -5.2290904,96.506223 12.63604,69.821218 39.89035,64.950602 c 17.31438,-3.094252 36.52796,5.347104 46.18738,20.29211 21.9895,34.022028 -4.29803,76.861008 -44.5782,72.645998 z m 127.61202,0.046 c -15.18278,-2.00428 -29.06683,-12.31852 -35.87899,-26.65394 -3.35112,-7.05205 -3.73161,-8.71638 -4.06487,-17.78033 -0.3045,-8.28205 0.006,-11.11667 1.80988,-16.499997 5.60337,-16.726099 19.3945,-28.799968 36.45562,-31.916206 4.09049,-0.747134 51.77199,-1.0792 153.5,-1.06901 128.08334,0.01283 148.41224,0.214174 153.97327,1.525002 25.8149,6.085006 42.05681,31.982944 35.6014,56.766911 -2.16912,8.32782 -6.01164,15.28785 -11.84595,21.45677 -5.73462,6.06351 -10.50389,9.15605 -19.24229,12.47728 l -5.92009,2.25007 -149,0.14337 c -81.95,0.0789 -151.87459,-0.23611 -155.38798,-0.69992 z"
       id="path36" />
  </g>
</svg>
