<?xml version="1.0" encoding="UTF-8" standalone="no"?>
<svg
   xmlns:dc="http://purl.org/dc/elements/1.1/"
   xmlns:cc="http://creativecommons.org/ns#"
   xmlns:rdf="http://www.w3.org/1999/02/22-rdf-syntax-ns#"
   xmlns:svg="http://www.w3.org/2000/svg"
   xmlns="http://www.w3.org/2000/svg"
   version="1.1"
   id="svg38"
   width="512"
   height="512"
   viewBox="0 0 512 512">
  <metadata
     id="metadata44">
    <rdf:RDF>
      <cc:Work
         rdf:about="">
        <dc:format>image/svg+xml</dc:format>
        <dc:type
           rdf:resource="http://purl.org/dc/dcmitype/StillImage" />
        <dc:title></dc:title>
      </cc:Work>
    </rdf:RDF>
  </metadata>
  <defs
     id="defs42" />
  <g
     id="g46">
    <path
       style="fill:#010101"
       d="m 248.76108,509.93765 c -6.13109,-3.23699 -7.76102,-7.73082 -7.76102,-21.39773 0,-8.69172 -0.31498,-11.53984 -1.27623,-11.53984 -0.70193,0 -5.08943,-0.46155 -9.75,-1.02566 -70.6082,-8.5464 -132.206008,-49.65179 -167.294427,-111.63873 -13.51669,-23.87848 -23.201081,-53.78491 -26.653671,-82.30938 -0.56412,-4.66057 -1.02567,-9.04807 -1.02567,-9.75 0,-0.96125 -2.84812,-1.27623 -11.53983,-1.27623 -13.8518795,0 -18.2044295,-1.61822 -21.4467095,-7.97362 -2.55003,-4.99848 -2.55003,-9.05428 0,-14.05276 3.24228,-6.3554 7.59483,-7.97362 21.4467095,-7.97362 8.69171,0 11.53983,-0.31498 11.53983,-1.27623 0,-0.70193 0.46155,-5.08943 1.02567,-9.75 7.847711,-64.83578 42.92142,-121.92673 97.474328,-158.663059 21.75579,-14.650504 51.5896,-27.022119 77.65875,-32.203872 9.168,-1.822318 25.05796,-4.10685 28.56502,-4.10685 0.96125,0 1.27623,-2.84812 1.27623,-11.539839 0,-13.8518788 1.61822,-18.2044217 7.97362,-21.4467038 4.99848,-2.55003495 9.05428,-2.55003495 14.05276,0 6.3554,3.2422821 7.97362,7.594825 7.97362,21.4467038 0,10.316219 0.18556,11.541909 1.75,11.559362 0.9625,0.01074 6.475,0.65292 12.25,1.427072 100.81738,13.514807 178.74398,92.483096 190.97434,193.527186 0.56411,4.66057 1.02566,9.04807 1.02566,9.75 0,0.96125 2.84812,1.27623 11.53984,1.27623 13.85188,0 18.20442,1.61822 21.4467,7.97362 2.55004,4.99848 2.55004,9.05428 0,14.05276 -3.24228,6.3554 -7.59482,7.97362 -21.4467,7.97362 -8.69172,0 -11.53984,0.31498 -11.53984,1.27623 0,0.70193 -0.46155,5.08943 -1.02566,9.75 -8.15652,67.38711 -45.60429,126.11377 -103.65966,162.56205 -25.60382,16.07457 -58.62558,27.55359 -90.28845,31.38606 -4.66057,0.56411 -9.04807,1.02566 -9.75,1.02566 -0.96125,0 -1.27623,2.84812 -1.27623,11.53984 0,13.85188 -1.61822,18.20442 -7.97362,21.4467 -4.92772,2.51394 -9.44036,2.49844 -14.26536,-0.049 z m -7.76102,-74.05142 c 0,-13.35183 1.73304,-17.61032 8.49982,-20.88606 5.19527,-2.51499 7.80509,-2.51499 13.00036,0 6.77762,3.28099 8.49982,7.52742 8.49982,20.95802 v 11.1858 l 5.75,-0.65865 c 11.36087,-1.30137 30.06,-5.48588 40.30836,-9.02025 70.84579,-24.43271 120.68233,-86.32456 129.41088,-160.71501 l 0.67467,-5.75 h -11.1858 c -13.4306,0 -17.67703,-1.7222 -20.95802,-8.49982 -2.51499,-5.19527 -2.51499,-7.80509 0,-13.00036 3.28099,-6.77762 7.52742,-8.49982 20.95802,-8.49982 h 11.1858 l -0.67467,-5.75 c -1.39926,-11.92541 -4.75,-27.04628 -8.57476,-38.69527 C 414.49589,125.28996 351.83423,74.340777 276.75006,65.530828 l -5.75,-0.674673 v 10.756232 c 0,13.474173 -1.84205,18.164622 -8.37583,21.327573 -5.32093,2.575817 -7.90302,2.587625 -13.12435,0.06002 -6.77762,-3.280989 -8.49982,-7.527421 -8.49982,-20.958023 V 64.856155 l -5.75,0.674673 C 185.41193,71.37855 138.42751,96.97129 107.71498,135.00007 84.613063,163.60528 69.649812,199.15171 65.514803,235.25008 l -0.65865,5.75 h 11.1858 c 13.43061,0 17.67704,1.7222 20.95802,8.49982 2.527609,5.22133 2.515799,7.80342 -0.06,13.12435 -3.162941,6.53378 -7.853391,8.37583 -21.32757,8.37583 H 64.856172 l 0.674671,5.75 c 8.471829,72.20244 56.193687,133.41211 123.668087,158.62086 11.42614,4.26886 26.40844,8.18245 38.57916,10.07742 14.63443,2.27857 13.22199,3.30005 13.22199,-9.56213 z m 8,-105.47269 c -12.07167,-2.10902 -15.40371,-2.96417 -21.66973,-5.56142 -21.67635,-8.98481 -38.42383,-28.63296 -44.00105,-51.62206 -2.14242,-8.83096 -2.14242,-25.629 0,-34.45996 6.59315,-27.17675 28.26405,-48.84765 55.4408,-55.4408 8.83096,-2.14242 25.629,-2.14242 34.45996,0 27.17675,6.59315 48.84765,28.26405 55.4408,55.4408 2.14242,8.83096 2.14242,25.629 0,34.45996 -6.54443,26.9759 -28.60305,49.15817 -54.9408,55.24877 -6.71446,1.55272 -20.66809,2.64436 -24.72998,1.93471 z"
       id="path50" />
  </g>
</svg>
