<?xml version="1.0" encoding="UTF-8" standalone="no"?>
<svg
   xmlns:dc="http://purl.org/dc/elements/1.1/"
   xmlns:cc="http://creativecommons.org/ns#"
   xmlns:rdf="http://www.w3.org/1999/02/22-rdf-syntax-ns#"
   xmlns:svg="http://www.w3.org/2000/svg"
   xmlns="http://www.w3.org/2000/svg"
   version="1.1"
   id="svg24"
   width="32.251968"
   height="32.251968"
   viewBox="0 0 32.251968 32.251968">
  <metadata
     id="metadata30">
    <rdf:RDF>
      <cc:Work
         rdf:about="">
        <dc:format>image/svg+xml</dc:format>
        <dc:type
           rdf:resource="http://purl.org/dc/dcmitype/StillImage" />
        <dc:title></dc:title>
      </cc:Work>
    </rdf:RDF>
  </metadata>
  <defs
     id="defs28" />
  <g
     id="g32">
    <path
       style="fill:#000000;stroke-width:0.0629921"
       d="m 28.929098,32.154971 c -0.181867,-0.04897 -0.451158,-0.149275 -0.598426,-0.222894 -0.291904,-0.145925 -7.791597,-7.572223 -8.105553,-8.026231 -0.09583,-0.138582 -0.226169,-0.3937 -0.289636,-0.566929 -0.06347,-0.173228 -0.122504,-0.324737 -0.131192,-0.336685 -0.0087,-0.01195 -0.218418,0.109349 -0.466065,0.269551 -1.894362,1.225457 -4.332792,1.925402 -6.707605,1.925402 -3.4260682,0 -6.4983052,-1.262533 -8.9289692,-3.669352 -1.897098,-1.878487 -3.11293198,-4.290435 -3.55070698,-7.043821 -0.13147,-0.82688 -0.148731,-2.760467 -0.03173,-3.554542 0.775246,-5.2616181 4.53273398,-9.4017643 9.60090198,-10.57864738 1.0715912,-0.2488351 1.7081842,-0.315346 2.9727202,-0.3105884 1.272129,0.00479 1.932412,0.084959 3.065774,0.3722512 4.476971,1.13485338 7.979813,4.67328238 9.086481,9.17879308 0.806473,3.2833405 0.237173,6.8520055 -1.547316,9.6993815 -0.172891,0.275869 -0.305321,0.507938 -0.294288,0.515711 0.01103,0.0078 0.16179,0.06606 0.335018,0.129525 0.173229,0.06347 0.428347,0.193804 0.566929,0.289636 0.138583,0.09583 1.972597,1.898541 4.075586,4.006018 4.161919,4.1708 4.058351,4.049751 4.223163,4.935981 0.144837,0.778822 -0.15456,1.692591 -0.749517,2.287547 -0.667115,0.667116 -1.642985,0.937552 -2.525567,0.699893 z M 14.17315,21.888684 c 1.518267,-0.249035 3.005078,-0.902518 4.263587,-1.87393 0.201484,-0.155521 0.636829,-0.562545 0.967433,-0.904498 C 22.444661,15.965394 22.880336,11.05527 20.44288,7.403861 17.416297,2.8699182 11.196025,1.84233 6.8748388,5.1624226 c -1.396021,1.0726041 -2.522374,2.6156935 -3.11741,4.2708149 -1.299826,3.6155245 -0.219041,7.7741735 2.667689,10.2647485 2.163724,1.866791 4.9389432,2.651463 7.7480322,2.190698 z"
       id="path36" />
  </g>
</svg>
