<?xml version="1.0" encoding="UTF-8" standalone="no"?>
<svg
   xmlns:dc="http://purl.org/dc/elements/1.1/"
   xmlns:cc="http://creativecommons.org/ns#"
   xmlns:rdf="http://www.w3.org/1999/02/22-rdf-syntax-ns#"
   xmlns:svg="http://www.w3.org/2000/svg"
   xmlns="http://www.w3.org/2000/svg"
   version="1.1"
   id="svg66"
   width="522.89362"
   height="522.89362"
   viewBox="0 0 522.89362 522.89362">
  <metadata
     id="metadata72">
    <rdf:RDF>
      <cc:Work
         rdf:about="">
        <dc:format>image/svg+xml</dc:format>
        <dc:type
           rdf:resource="http://purl.org/dc/dcmitype/StillImage" />
        <dc:title></dc:title>
      </cc:Work>
    </rdf:RDF>
  </metadata>
  <defs
     id="defs70" />
  <g
     id="g74">
    <path
       style="fill:#000000;stroke-width:1.02128"
       d="m 297.07112,477.6317 c -6.53961,-2.44783 -10.38494,-5.44297 -21.56361,-16.79598 -12.60836,-12.805 -15.32211,-17.61115 -15.37719,-27.2336 -0.07,-12.21337 -1.3275,-10.71023 61.60573,-73.6358 l 57.16449,-57.15754 -178.98226,-0.51064 C 24.533058,301.79777 20.854608,301.74713 16.884788,299.77882 11.360018,297.03953 5.3474879,290.80738 2.7123879,285.08879 0.81166788,280.96388 0.47887788,278.1013 0.17680788,263.27869 c -0.27681,-13.58359 -0.006,-18.23815 1.32944002,-22.83114 2.25433,-7.75464 8.9275901,-14.93822 16.5136601,-17.77653 5.49665,-2.05657 7.122,-2.075 182.933382,-2.075 h 177.38746 l -56.8658,-56.93617 c -62.95328,-63.03118 -61.34994,-61.09838 -61.34994,-73.956716 0,-10.323264 2.931,-15.380018 16.85328,-29.076421 14.25163,-14.02042 17.99367,-16.151038 28.38326,-16.16068 5.38499,-0.005 8.87269,0.563852 11.74468,1.915576 5.96349,2.80676 199.57442,196.252381 202.86208,202.688881 3.14064,6.14868 3.36499,17.94636 0.45869,24.12127 -2.93415,6.23408 -195.49385,198.92835 -202.27958,202.42096 -6.12029,3.15009 -15.62255,4.06035 -21.0763,2.01898 z"
       id="path78" />
  </g>
</svg>
