<?xml version="1.0" encoding="UTF-8" standalone="no"?>
<svg
   xmlns:dc="http://purl.org/dc/elements/1.1/"
   xmlns:cc="http://creativecommons.org/ns#"
   xmlns:rdf="http://www.w3.org/1999/02/22-rdf-syntax-ns#"
   xmlns:svg="http://www.w3.org/2000/svg"
   xmlns="http://www.w3.org/2000/svg"
   version="1.1"
   id="svg52"
   width="512"
   height="512"
   viewBox="0 0 512 512">
  <metadata
     id="metadata58">
    <rdf:RDF>
      <cc:Work
         rdf:about="">
        <dc:format>image/svg+xml</dc:format>
        <dc:type
           rdf:resource="http://purl.org/dc/dcmitype/StillImage" />
        <dc:title></dc:title>
      </cc:Work>
    </rdf:RDF>
  </metadata>
  <defs
     id="defs56" />
  <g
     id="g60">
    <path
       style="fill:#010101"
       d="m 174.99988,510.94712 c -31.9086,-3.95726 -57.47351,-14.89005 -72.3223,-30.92852 -6.317609,-6.82376 -8.662669,-10.8391 -11.067389,-18.95009 -8.87477,-29.93417 21.507299,-58.52278 71.389689,-67.17556 28.64936,-4.96962 58.4483,-3.18818 87.51535,5.23183 l 4.01535,1.16315 30.97643,-17.71907 c 17.03703,-9.74549 31.15842,-17.90106 31.38086,-18.1235 0.22244,-0.22245 -1.3931,-2.35454 -3.59009,-4.73799 -10.08644,-10.94249 -14.25198,-25.00459 -11.14914,-37.63741 0.27302,-1.11157 -13.78203,-4.9428 -63.1119,-17.20352 -34.90473,-8.67541 -63.48866,-15.68189 -63.51984,-15.56995 -0.0312,0.11193 -1.79437,2.79727 -3.9182,5.9674 -23.29719,34.77465 -88.281569,46.54974 -134.09882,24.29854 -38.26703014,-18.58442 -48.64611,-52.94173 -24,-79.44592 6.21754,-6.68629 20.31497,-16.75978 21.5444,-15.39482 0.38557,0.42808 5.19086,7.52832 10.67841,15.77832 10.93425,16.43856 15.18646,20.91102 24.21397,25.46809 16.192281,8.17383 35.79029,5.64716 49.76669,-6.41617 2.3119,-1.99546 8.78804,-10.47346 14.39142,-18.84001 5.60338,-8.36655 10.50528,-15.57037 10.89312,-16.00849 1.16778,-1.31919 15.41048,8.87957 21.3311,15.27454 3.04321,3.28703 6.96525,8.88552 8.71566,12.4411 l 3.18255,6.46469 71.58692,17.72294 71.58693,17.72293 3.55441,-2.2095 c 14.12309,-8.77923 31.7246,-15.29613 50.55442,-18.71762 13.70439,-2.49017 46.71225,-2.53187 61,-0.0771 33.37015,5.7334 59.39441,19.81101 69.76285,37.73766 18.22748,31.51461 -8.94762,65.02452 -61.58009,75.93507 -30.68324,6.36055 -61.79225,4.98471 -93.19811,-4.12179 l -4.01535,-1.1643 -30.97643,17.71907 c -17.03703,9.74549 -31.15842,17.90106 -31.38086,18.1235 -0.22244,0.22245 1.3931,2.35454 3.59009,4.73799 12.71064,13.78942 15.59251,30.63322 7.9031,46.19169 -9.85537,19.94097 -35.34991,34.87614 -70.1052,41.06892 -10.69891,1.90635 -40.79872,2.72101 -51.5,1.39386 z M 82.947361,239.03324 C 80.01743,237.48405 73.46318,228.15951 45.5488,185.82743 26.93348,157.59735 10.20177,131.35001 8.3672199,127.50001 2.4594499,115.10191 0.68057986,106.42354 0.68057986,90.000011 c 0,-11.771848 0.40933004,-16.005187 2.17555004,-22.5 C 14.06032,26.299557 51.88205,-1.7252737 93.499881,0.33556327 128.15223,2.0514823 156.78207,21.113268 171.56125,52.308924 c 5.99101,12.645741 7.75792,21.230089 7.75792,37.691087 0,16.423529 -1.77886,25.101899 -7.68663,37.499999 -1.83455,3.85 -18.5676,30.09937 -37.18456,58.33194 -29.12248,44.16417 -34.374,51.59977 -37.608719,53.25 -4.69596,2.3957 -9.29939,2.37956 -13.8919,-0.0487 z m 16.2533,-105.15849 c 12.719839,-2.70099 24.168919,-11.34071 30.175339,-22.77096 9.4472,-17.978052 6.41646,-38.362068 -7.83193,-52.675599 -17.67135,-17.752136 -45.06491,-17.734584 -63.08898,0.04042 -17.7756,17.529973 -17.77534,45.290349 6e-4,63.080379 11.05238,11.06115 25.754931,15.50881 40.744971,12.32576 z"
       id="path64" />
  </g>
</svg>
