<?xml version="1.0" encoding="UTF-8" standalone="no"?>
<svg
   xmlns:dc="http://purl.org/dc/elements/1.1/"
   xmlns:cc="http://creativecommons.org/ns#"
   xmlns:rdf="http://www.w3.org/1999/02/22-rdf-syntax-ns#"
   xmlns:svg="http://www.w3.org/2000/svg"
   xmlns="http://www.w3.org/2000/svg"
   version="1.1"
   id="svg10"
   width="546.1333"
   height="546.1333"
   viewBox="0 0 546.1333 546.1333">
  <metadata
     id="metadata16">
    <rdf:RDF>
      <cc:Work
         rdf:about="">
        <dc:format>image/svg+xml</dc:format>
        <dc:type
           rdf:resource="http://purl.org/dc/dcmitype/StillImage" />
        <dc:title></dc:title>
      </cc:Work>
    </rdf:RDF>
  </metadata>
  <defs
     id="defs14" />
  <g
     id="g18">
    <path
       style="fill:#000000;stroke-width:1.06667"
       d="m 211.19986,543.91018 c -11.90723,-5.39821 -12.84723,-7.81257 -18.72893,-48.10424 -2.67843,-18.34826 -4.96015,-33.43449 -5.07047,-33.52493 -0.11034,-0.0905 -3.74324,-1.93829 -8.07312,-4.10632 -4.32988,-2.16803 -12.00988,-6.62641 -17.06667,-9.90751 -5.05678,-3.2811 -9.91414,-5.9071 -10.79414,-5.83557 -0.88,0.0716 -14.8,5.45007 -30.93333,11.95231 -16.13333,6.50224 -31.366473,12.11012 -33.851413,12.46197 -6.33055,0.89635 -13.4544,-1.3917 -18.45,-5.92581 -5.89734,-5.35255 -59.3438701,-97.82655 -60.3262201,-104.37734 -1.01468,-6.76636 0.36311,-13.45766 3.7273001,-18.10178 1.64744,-2.27423 14.53003,-13.13696 28.62797,-24.1394 l 25.63263,-20.00444 -0.1468,-21.31364 -0.1468,-21.31364 -25.57868,-20.01017 c -15.36215,-12.01781 -26.83798,-21.80194 -28.73153,-24.49615 -3.5717401,-5.08195 -4.9391401,-14.69425 -2.9159601,-20.49796 1.5714,-4.50772 54.1796101,-95.383883 57.5067301,-99.337944 4.1899,-4.979412 10.5005,-7.737888 17.85277,-7.803762 5.74469,-0.05147 9.5025,1.189579 36.699793,12.120435 16.66489,6.697777 30.82489,12.169341 31.46667,12.159041 0.64178,-0.0103 5.72687,-2.90307 11.3002,-6.428362 5.57333,-3.525289 13.25333,-7.973744 17.06667,-9.885457 3.81333,-1.911712 7.00919,-3.53895 7.10192,-3.616086 0.0927,-0.07713 2.37389,-15.161685 5.06929,-33.52122 5.91877,-40.315461 6.86167,-42.7342414 18.76212,-48.1293898 4.63971,-2.10344242 6.7057,-2.17611242 61.86666,-2.17611242 78.75107,0 72.88314,-3.62207898 80.62453,49.76688722 2.58983,17.860993 4.7088,32.814413 4.7088,33.229822 0,0.41541 3.72,2.592512 8.26666,4.838003 4.54667,2.245492 12.34667,6.753241 17.33334,10.01722 4.98666,3.263985 9.78666,5.875605 10.66666,5.803605 0.88,-0.072 14.8,-5.456919 30.93333,-11.966488 16.13334,-6.50957 31.49334,-12.104911 34.13334,-12.434091 6.65352,-0.829626 13.24283,1.206809 18.09807,5.593233 2.89008,2.611016 12.21666,17.753776 31.41275,51.002166 15.01622,26.00871 27.83513,48.81726 28.48647,50.68568 2.04943,5.87901 0.70378,15.47162 -2.88708,20.58078 -1.89354,2.69417 -13.36954,12.4785 -28.73154,24.49625 l -25.57868,20.01027 -0.12081,21.28362 -0.12081,21.2836 25.18748,19.70719 c 27.74238,21.7062 29.14787,22.98537 31.53656,28.70234 2.98932,7.15447 2.19007,14.6411 -2.50194,23.43569 -10.6051,19.87793 -51.52601,89.34055 -55.00674,93.37309 -4.60742,5.33783 -12.98321,8.39348 -20.2024,7.3702 -2.40423,-0.34078 -17.57133,-5.93961 -33.70467,-12.44185 -16.13333,-6.50224 -30.05333,-11.88078 -30.93333,-11.95231 -0.88,-0.0716 -5.73736,2.55447 -10.79414,5.83557 -5.05679,3.2811 -12.73679,7.73948 -17.06667,9.90751 -4.32988,2.16803 -7.95347,4.00656 -8.05241,4.08562 -0.0989,0.079 -2.17035,14.06279 -4.60313,31.07496 -2.43278,17.01216 -4.91423,32.91328 -5.51432,35.33581 -1.50038,6.05685 -6.64456,11.91954 -13.09374,14.92258 l -5.40892,2.51865 -57.06666,-0.013 c -55.14618,-0.0126 -57.2282,-0.0862 -61.86666,-2.18912 z m 89.3121,-184.29743 c 11.37712,-3.77816 14.45226,-5.25735 23.22122,-11.16971 9.67827,-6.52547 18.21341,-15.17038 25.01191,-25.33361 20.14755,-30.11905 20.14755,-69.96681 0,-100.08586 -12.49356,-18.67692 -28.59971,-30.49265 -51.19231,-37.55549 -6.90022,-2.15714 -10.1414,-2.48511 -24.48626,-2.47772 -12.99842,0.006 -17.90168,0.42774 -22.93333,1.96939 -29.34543,8.99119 -50.80964,27.97169 -61.24866,54.16134 -20.25887,50.82595 8.41395,107.84801 61.24866,121.8061 9.83763,2.59894 10.75408,2.6798 26.13333,2.30551 12.66005,-0.3081 15.58962,-0.7455 24.24544,-3.61995 z"
       id="path22" />
  </g>
</svg>
