<?xml version="1.0" encoding="UTF-8" standalone="no"?>
<svg
   xmlns:dc="http://purl.org/dc/elements/1.1/"
   xmlns:cc="http://creativecommons.org/ns#"
   xmlns:rdf="http://www.w3.org/1999/02/22-rdf-syntax-ns#"
   xmlns:svg="http://www.w3.org/2000/svg"
   xmlns="http://www.w3.org/2000/svg"
   version="1.1"
   id="svg162"
   width="910.22223"
   height="910.22223"
   viewBox="0 0 910.22223 910.22223">
  <metadata
     id="metadata168">
    <rdf:RDF>
      <cc:Work
         rdf:about="">
        <dc:format>image/svg+xml</dc:format>
        <dc:type
           rdf:resource="http://purl.org/dc/dcmitype/StillImage" />
        <dc:title></dc:title>
      </cc:Work>
    </rdf:RDF>
  </metadata>
  <defs
     id="defs166" />
  <g
     id="g170">
    <path
       style="fill:#000000;stroke-width:1.77778"
       d="m 143.99956,759.11096 v -85.33334 l -7.55555,-0.0263 C 124.63863,673.71032 107.01877,668.90374 92.444,661.7485 82.41449,656.82468 75.34021,651.44703 63.89414,640.04573 46.47757,622.6973 37.54855,607.474 31.94978,585.58299 28.56066,572.33167 28.444,565.09136 28.444,367.99984 c 0,-195.58592 0.1395,-204.42113 3.43083,-217.29011 10.95654,-42.83965 43.38935,-75.161458 86.52553,-86.229371 11.5159,-2.954759 32.10319,-3.147186 336.7103,-3.147186 364.74604,0 332.34389,-1.216974 362.60651,13.618937 27.90412,13.679694 50.78288,42.08631 59.90666,74.38106 3.08285,10.91211 3.26463,23.08807 3.26463,218.66667 0,195.5786 -0.18178,207.75456 -3.26463,218.66667 -11.42298,40.43303 -42.06727,71.54649 -81.80321,83.05565 l -14.00168,4.05546 H 587.60179 393.3846 l -6.91474,4.68068 c -3.80311,2.57438 -59.05533,40.97438 -122.78269,85.33333 -63.72738,44.35897 -116.72738,80.65266 -117.77779,80.65266 -1.33472,0 -1.90982,-25.69635 -1.90982,-85.33333 z M 652.44401,476.44429 V 451.5554 H 454.22178 255.99956 v 24.88889 24.88889 h 198.22222 198.22223 z m 0,-106.66667 V 344.88873 H 454.22178 255.99956 v 24.88889 24.88889 h 198.22222 198.22223 z m 0,-106.66667 V 238.22206 H 454.22178 255.99956 v 24.88889 24.88889 h 198.22222 198.22223 z"
       id="path174" />
  </g>
</svg>
