<?xml version="1.0" encoding="UTF-8" standalone="no"?>
<svg
   xmlns:dc="http://purl.org/dc/elements/1.1/"
   xmlns:cc="http://creativecommons.org/ns#"
   xmlns:rdf="http://www.w3.org/1999/02/22-rdf-syntax-ns#"
   xmlns:svg="http://www.w3.org/2000/svg"
   xmlns="http://www.w3.org/2000/svg"
   version="1.1"
   id="svg38"
   width="512"
   height="512"
   viewBox="0 0 512 512">
  <metadata
     id="metadata44">
    <rdf:RDF>
      <cc:Work
         rdf:about="">
        <dc:format>image/svg+xml</dc:format>
        <dc:type
           rdf:resource="http://purl.org/dc/dcmitype/StillImage" />
        <dc:title></dc:title>
      </cc:Work>
    </rdf:RDF>
  </metadata>
  <defs
     id="defs42" />
  <g
     id="g46">
    <path
       style="fill:#000000"
       d="m 38.760895,509.93791 c -2.32047,-1.22512 -4.52294,-3.51074 -5.80539,-6.02454 -2.02562,-3.97056 -2.05982,-5.11008 -1.73254,-57.73177 0.32987,-53.03775 0.3617,-53.76517 2.65522,-60.68126 5.83143,-17.58465 16.38651,-31.85056 30.59875,-41.35628 6.77665,-4.53251 16.10398,-8.9662 16.91004,-8.03809 0.18839,0.2169 13.00602,19.40687 28.483635,42.64437 l 28.14111,42.25 h -10.11977 c -8.63123,0 -10.70656,0.3298 -14.10913,2.24215 -7.77894,4.37201 -7.78294,4.39731 -7.78294,49.21801 v 39.53984 l -31.750005,-0.0442 c -29.63302,-0.0412 -31.9993,-0.17581 -35.48898,-2.01823 z m 97.238985,-28.43757 v -30.5 h 30 30 v 30.5 30.5 h -30 -30 z m 90,-9.03984 c 0,-37.65449 -0.096,-39.72802 -2.01346,-43.48654 -3.13129,-6.13783 -7.72503,-7.97362 -19.95262,-7.97362 h -10.04576 l 28.14111,-42.25 c 15.47761,-23.2375 28.29525,-42.42747 28.48363,-42.64437 0.80606,-0.92811 10.13339,3.50558 16.91005,8.03809 14.21223,9.50572 24.76731,23.77163 30.59874,41.35628 2.29352,6.91609 2.32535,7.64351 2.65522,60.68126 0.32741,52.64172 0.29381,53.75979 -1.73498,57.73654 -1.35071,2.64761 -3.43883,4.7542 -6.01555,6.06874 -3.70855,1.89196 -5.84987,2.01346 -35.48654,2.01346 h -31.53984 z m 112.76102,37.47741 c -2.28502,-1.20641 -4.52099,-3.50692 -5.75,-5.91597 -1.98258,-3.88618 -2.01102,-5.68962 -2.01102,-127.5216 0,-121.88157 0.0277,-123.63391 2.01346,-127.52638 2.33615,-4.57924 8.05917,-7.97362 13.44375,-7.97362 2.64677,0 19.45554,7.99041 66.78984,31.75 60.89364,30.56574 63.33626,31.8992 65.4865,35.75 2.8358,5.07856 2.8358,9.92144 0,15 -2.1451,3.8416 -4.52035,5.14842 -59.98031,33 l -57.74677,29 -0.003,57.28984 c -0.003,55.44065 -0.0682,57.41723 -2.0167,61.23654 -3.68984,7.23269 -12.72237,9.87257 -20.22552,5.91119 z m -199.09953,-140.43757 -25.66431,-38.5 h 3.50141 3.50141 l -0.027,-15.75 -0.0271,-15.75 -8.24291,-2.64658 c -4.53361,-1.45561 -11.0845,-4.31198 -14.557555,-6.34748 -12.00321,-7.0349 -25.55599,-22.07654 -30.63992,-34.00594 -5.44137,-12.76814 -5.79591,-15.39063 -6.25263,-46.25 l -0.4329,-29.25 H 165.99988 271.17989 l -0.4329,29.25 c -0.38532,26.03515 -0.66132,29.98872 -2.51118,35.97117 -7.86673,25.44111 -28.23408,45.72398 -52.04146,51.82563 l -5.19447,1.3313 v 15.81095 15.81095 h 3.50141 3.50141 l -25.66431,38.5 c -14.11537,21.175 -25.9677,38.5 -26.33851,38.5 -0.37081,0 -12.22314,-17.325 -26.33851,-38.5 z M 38.760895,148.9379 c -4.27334,-2.25616 -7.74632,-8.11865 -7.78882,-13.14773 -0.0185,-2.19371 3.38328,-10.20348 10.20991,-24.03984 l 10.2377,-20.749996 H 165.99988 280.58007 l 10.2377,20.749996 c 6.82663,13.83636 10.22845,21.84613 10.20991,24.03984 -0.0438,5.18514 -3.51302,10.90689 -8.00142,13.1967 -3.89375,1.98645 -5.60078,2.01287 -127.23654,1.96926 -120.775465,-0.0433 -123.366095,-0.0845 -127.028825,-2.01823 z m 24.33679,-91.877362 c 6.88821,-30.657184 30.54504,-48.8328345 71.902195,-55.2427835 11.28463,-1.749006 50.71537,-1.749006 62,0 41.35116,6.40902 65.01498,24.5900415 71.90219,55.2427835 l 0.88522,3.939801 H 165.99988 62.212475 Z"
       id="path50" />
  </g>
</svg>
