<?xml version="1.0" encoding="UTF-8" standalone="no"?>
<svg
   xmlns:dc="http://purl.org/dc/elements/1.1/"
   xmlns:cc="http://creativecommons.org/ns#"
   xmlns:rdf="http://www.w3.org/1999/02/22-rdf-syntax-ns#"
   xmlns:svg="http://www.w3.org/2000/svg"
   xmlns="http://www.w3.org/2000/svg"
   version="1.1"
   id="svg52"
   width="546.1333"
   height="546.1333"
   viewBox="0 0 546.1333 546.1333">
  <metadata
     id="metadata58">
    <rdf:RDF>
      <cc:Work
         rdf:about="">
        <dc:format>image/svg+xml</dc:format>
        <dc:type
           rdf:resource="http://purl.org/dc/dcmitype/StillImage" />
        <dc:title></dc:title>
      </cc:Work>
    </rdf:RDF>
  </metadata>
  <defs
     id="defs56" />
  <g
     id="g60">
    <path
       style="fill:#000000;stroke-width:1.06667"
       d="m 123.73306,544.98496 c -8.82983,-1.15518 -23.22407,-5.62651 -31.400885,-9.75416 -15.48614,-7.81737 -29.7295,-22.09612 -37.27172,-37.36433 -9.68889,-19.61382 -11.93433,-38.26374 -9.15033,-75.99964 3.69298,-50.05682 16.8333,-91.96539 37.09363,-118.30318 17.856555,-23.21297 40.938945,-35.9207 70.852225,-39.00686 15.47086,-1.59614 17.78076,-0.8317 39.96643,13.22639 22.91011,14.51713 23.44173,14.79745 37.72882,19.89394 28.91903,10.316 55.21938,10.12096 83.89769,-0.62217 13.10331,-4.90862 15.52912,-6.18957 33.02684,-17.44001 16.42478,-10.56057 23.70258,-14.44855 28.90707,-15.44286 5.44186,-1.03967 23.79613,1.22077 34.05741,4.19437 44.87319,13.00374 73.24088,54.60656 84.48495,123.90196 5.05783,31.17051 5.61887,70.62053 1.24011,87.19842 -8.40564,31.82358 -31.50476,54.37302 -65.1656,63.61488 l -9.06666,2.48934 -146.13333,0.16048 c -80.37333,0.0883 -149.25332,-0.24769 -153.06665,-0.74657 z M 256.53305,262.29709 C 235.16324,260.50658 216.06853,253.81085 197.32034,241.5336 186.3836,234.37169 171.93957,220.95086 164.10027,210.66684 138.17319,176.65425 130.7337,129.6919 144.75263,88.533516 150.42305,71.885671 160.49714,55.451142 173.51241,41.615833 210.06517,2.7600249 264.40029,-9.9697061 315.75702,8.2905039 c 25.25696,8.9802741 51.7709,31.3579331 66.99057,56.5397891 19.03871,31.500693 23.10725,75.918447 10.22508,111.630837 -12.73662,35.30888 -43.73259,66.29711 -78.91156,78.89188 -17.50705,6.26786 -37.21146,8.64633 -57.52806,6.94408 z"
       id="path64" />
  </g>
</svg>
